<?xml version="1.0" encoding="UTF-8" standalone="no"?>
<!-- Created with Inkscape (http://www.inkscape.org/) -->

<svg
   width="1070.4333"
   height="835.9668"
   viewBox="0 0 283.21881 221.18289"
   version="1.1"
   id="svg1"
   inkscape:version="1.4.2 (f4327f4, 2025-05-13)"
   sodipodi:docname="coffee-cup-opt.svg"
   xmlns:inkscape="http://www.inkscape.org/namespaces/inkscape"
   xmlns:sodipodi="http://sodipodi.sourceforge.net/DTD/sodipodi-0.dtd"
   xmlns="http://www.w3.org/2000/svg"
   xmlns:svg="http://www.w3.org/2000/svg">
  <sodipodi:namedview
     id="namedview1"
     pagecolor="#505050"
     bordercolor="#eeeeee"
     borderopacity="1"
     inkscape:showpageshadow="0"
     inkscape:pageopacity="0"
     inkscape:pagecheckerboard="0"
     inkscape:deskcolor="#505050"
     inkscape:document-units="px"
     borderlayer="true"
     showborder="true"
     inkscape:zoom="1"
     inkscape:cx="363"
     inkscape:cy="407.5"
     inkscape:window-width="2560"
     inkscape:window-height="1361"
     inkscape:window-x="-9"
     inkscape:window-y="-9"
     inkscape:window-maximized="1"
     inkscape:current-layer="layer1" />
  <defs
     id="defs1" />
  <g
     inkscape:label="Teacup"
     inkscape:groupmode="layer"
     id="layer1"
     transform="translate(0,88.899998)">
    <path
       id="path3"
       style="fill:#000000;stroke-width:1.32292;stroke-dasharray:none;paint-order:stroke fill markers"
       d="m 140.01316,76.929671 c -3.055,0.160282 -6.23313,1.036197 -9.18239,2.646867 -4.43106,1.656856 -12.92737,8.315255 -12.92737,8.315255 l -7.34064,26.438697 c 0,0 6.86885,0.0153 15.00632,-1.55908 8.13747,-1.57443 13.31421,-3.68278 16.7597,-5.32629 3.44549,-1.64351 10.0837,-6.68175 12.3424,-13.122195 2.56279,-11.910954 -5.49304,-17.874098 -14.65802,-17.393254 z m 2.61896,3.644222 c 2.76082,0.09286 4.68886,0.937997 6.48488,3.030306 2.39468,2.789745 2.32909,6.229637 1.3317,10.263973 -0.44845,1.813942 -2.97734,5.61809 -6.24562,8.341098 -4.00061,3.33314 -11.28768,5.51542 -11.28768,5.51542 l -12.78992,2.53008 c 0,0 5.97375,-17.348307 9.47281,-22.614641 3.49906,-5.266334 6.02889,-6.455087 9.96942,-6.926709 1.13129,-0.117906 2.14414,-0.170478 3.06441,-0.139527 z" />
    <path
       id="path1"
       style="stroke-width:0.264583"
       d="M 66.389746,50.162313 C 33.194866,50.561159 -5e-6,60.36119 0,78.365759 c 9.9999997e-6,29.777721 29.723699,53.917121 66.389746,53.917121 36.666044,0 66.389744,-24.1394 66.389744,-53.917121 1e-5,-19.599954 -33.194863,-28.602292 -66.389744,-28.203446 z m 1.42937,3.365169 c 32.719604,0 57.684854,9.404267 57.684854,17.79943 0,24.726785 -116.9292996,24.726857 -116.9292996,0 0,-8.395163 26.5248356,-17.79943 59.2444456,-17.79943 z"
       sodipodi:nodetypes="sssssssss" />
  </g>
  <g
     inkscape:groupmode="layer"
     id="layer2"
     inkscape:label="Steam"
     transform="translate(0,88.899998)">
    <path
       style="baseline-shift:baseline;display:inline;overflow:visible;opacity:0.6;vector-effect:none;stroke-linecap:round;paint-order:stroke fill markers;enable-background:accumulate;stop-color:#000000;stop-opacity:1"
       d="m 279.90312,-76.441276 c 1.02441,2.93169 4.97745,8.632829 -0.88766,16.91276 -2.71216,3.828868 -8.07639,6.808977 -15.2793,9.044922 -14.40582,4.47189 -35.86451,6.003809 -56.61719,7.824219 -20.75267,1.82041 -40.78049,3.876062 -52.90234,9.898438 -6.06093,3.011187 -10.26771,7.19271 -11.10547,12.890625 -0.83776,5.697914 1.64114,12.517905 7.9668,20.929687 6.15133,8.1799641 9.17025,14.385094 9.89258,18.910156 0.72232,4.525062 -0.60327,7.332475 -3.5293,9.613281 -5.85207,4.561614 -18.79792,6.01088 -32.69531,7.466797 -13.8974,1.455918 -28.774433,3.048465 -39.064459,9.105469 -5.145012,3.028502 -9.148364,7.254349 -11.056641,13.080078 -3.050934,9.314117 0.64738,20.188438 2.755859,23.25586 -0.41469,-4.127656 -4.001752,-10.954163 -0.242187,-22.431641 1.688402,-5.154479 5.142929,-8.832669 9.886719,-11.625 9.487576,-5.584662 24.112239,-7.299407 37.996099,-8.753906 13.88385,-1.4545 26.99855,-2.519166 34.04492,-8.011719 3.52318,-2.746276 5.35599,-6.852667 4.51562,-12.117187 -0.84036,-5.264521 -4.10458,-11.7255382 -10.38867,-20.0820318 -6.10975,-8.1246762 -8.14637,-14.3197732 -7.46484,-18.9550782 0.68152,-4.635305 4.0274,-8.104873 9.66601,-10.90625 11.27724,-5.602754 31.23627,-7.813248 51.95704,-9.630859 20.72076,-1.817611 42.22352,-3.295849 57.16992,-7.935547 7.4732,-2.319849 13.38232,-5.421821 16.65429,-10.041016 5.61962,-7.933457 -2.18136,-21.043091 -1.75208,-19.814583 z"
       id="path2"
       sodipodi:nodetypes="sssssssssssscsssssssssssss" />
    <path
       style="baseline-shift:baseline;display:inline;overflow:visible;opacity:0.6;vector-effect:none;stroke-linecap:round;paint-order:stroke fill markers;enable-background:accumulate;stop-color:#000000"
       d="m 262.00015,-87.446921 c 1.02441,2.93169 4.97745,8.632829 -0.88766,16.91276 -2.71216,3.828868 -8.07639,6.808977 -15.2793,9.044922 -14.40582,4.47189 -35.86451,6.003809 -56.61719,7.824219 -20.75267,1.82041 -40.78049,3.876062 -52.90234,9.898438 -6.06093,3.011187 -10.26771,7.19271 -11.10547,12.890625 -0.83776,5.697914 1.64114,12.517905 7.9668,20.9296867 6.15133,8.1799643 9.17025,14.3850943 9.89258,18.9101563 0.72232,4.525062 -0.60327,7.332475 -3.5293,9.613281 -5.85207,4.561614 -18.79792,6.01088 -32.69531,7.466797 -13.8974,1.455918 -28.77443,3.048465 -39.06446,9.105469 -5.14501,3.028502 -9.14836,7.254349 -11.05664,13.080078 -3.05093,9.314117 0.64738,20.188438 2.75586,23.255859 -0.41469,-4.127655 -4.00175,-10.954162 -0.24218,-22.43164 1.6884,-5.154479 5.14292,-8.832669 9.88671,-11.625 9.48758,-5.584662 24.11224,-7.299407 37.9961,-8.753906 13.88385,-1.4545 26.99855,-2.519166 34.04492,-8.011719 3.52318,-2.746276 5.35599,-6.852667 4.51562,-12.117187 -0.84036,-5.264521 -4.10458,-11.7255383 -10.38867,-20.082032 -6.10975,-8.124676 -8.14637,-14.319773 -7.46484,-18.955078 0.68152,-4.635305 4.0274,-8.104873 9.66601,-10.90625 11.27724,-5.602754 31.23627,-7.813248 51.95704,-9.630859 20.72076,-1.817611 42.22352,-3.295849 57.16992,-7.935547 7.4732,-2.319849 13.38232,-5.421821 16.65429,-10.041016 5.61962,-7.933457 -2.18136,-21.043091 -1.75208,-19.814583 z"
       id="path2-8"
       sodipodi:nodetypes="sssssssssssscsssssssssssss" />
  </g>
</svg>
